<mxfile host="app.diagrams.net" modified="2024-03-17T16:14:07.319Z" agent="Mozilla/5.0 (Windows NT 10.0; Win64; x64) AppleWebKit/537.36 (KHTML, like Gecko) Chrome/109.0.0.0 Safari/537.36" etag="JAQYqpFGjDqj_nOsMIm4" version="24.0.7" type="github">
  <diagram name="Page-1" id="9DLeiUi3indhat6XJKUw">
    <mxGraphModel dx="1434" dy="796" grid="1" gridSize="11" guides="1" tooltips="1" connect="1" arrows="1" fold="1" page="1" pageScale="1" pageWidth="850" pageHeight="1100" math="0" shadow="0">
      <root>
        <mxCell id="0" />
        <mxCell id="1" parent="0" />
        <mxCell id="yiMCuqzppgtP_T2wNdQ1-3" value="" style="edgeStyle=orthogonalEdgeStyle;rounded=0;orthogonalLoop=1;jettySize=auto;html=1;" edge="1" parent="1" source="yiMCuqzppgtP_T2wNdQ1-1">
          <mxGeometry relative="1" as="geometry">
            <mxPoint x="220" y="110" as="targetPoint" />
          </mxGeometry>
        </mxCell>
        <mxCell id="yiMCuqzppgtP_T2wNdQ1-1" value="&lt;p style=&quot;line-height: 150%; font-size: 22px;&quot;&gt;Start&lt;/p&gt;" style="ellipse;whiteSpace=wrap;html=1;strokeWidth=1;perimeterSpacing=1;" vertex="1" parent="1">
          <mxGeometry x="50" y="70" width="110" height="60" as="geometry" />
        </mxCell>
        <mxCell id="yiMCuqzppgtP_T2wNdQ1-6" value="" style="edgeStyle=orthogonalEdgeStyle;rounded=0;orthogonalLoop=1;jettySize=auto;html=1;" edge="1" parent="1" source="yiMCuqzppgtP_T2wNdQ1-4" target="yiMCuqzppgtP_T2wNdQ1-5">
          <mxGeometry relative="1" as="geometry" />
        </mxCell>
        <mxCell id="yiMCuqzppgtP_T2wNdQ1-4" value="Khai báo int cho a, b, c, d" style="rounded=0;whiteSpace=wrap;html=1;" vertex="1" parent="1">
          <mxGeometry x="220" y="80" width="120" height="60" as="geometry" />
        </mxCell>
        <mxCell id="yiMCuqzppgtP_T2wNdQ1-8" value="" style="edgeStyle=orthogonalEdgeStyle;rounded=0;orthogonalLoop=1;jettySize=auto;html=1;" edge="1" parent="1" source="yiMCuqzppgtP_T2wNdQ1-5" target="yiMCuqzppgtP_T2wNdQ1-7">
          <mxGeometry relative="1" as="geometry" />
        </mxCell>
        <mxCell id="yiMCuqzppgtP_T2wNdQ1-5" value="input a, b, c" style="rounded=0;whiteSpace=wrap;html=1;" vertex="1" parent="1">
          <mxGeometry x="400" y="80" width="120" height="60" as="geometry" />
        </mxCell>
        <mxCell id="yiMCuqzppgtP_T2wNdQ1-10" value="" style="edgeStyle=orthogonalEdgeStyle;rounded=0;orthogonalLoop=1;jettySize=auto;html=1;" edge="1" parent="1" source="yiMCuqzppgtP_T2wNdQ1-7" target="yiMCuqzppgtP_T2wNdQ1-9">
          <mxGeometry relative="1" as="geometry" />
        </mxCell>
        <mxCell id="yiMCuqzppgtP_T2wNdQ1-7" value="d = a + b + d" style="whiteSpace=wrap;html=1;rounded=0;" vertex="1" parent="1">
          <mxGeometry x="580" y="80" width="120" height="60" as="geometry" />
        </mxCell>
        <mxCell id="yiMCuqzppgtP_T2wNdQ1-12" value="" style="edgeStyle=orthogonalEdgeStyle;rounded=0;orthogonalLoop=1;jettySize=auto;html=1;" edge="1" parent="1" source="yiMCuqzppgtP_T2wNdQ1-9" target="yiMCuqzppgtP_T2wNdQ1-11">
          <mxGeometry relative="1" as="geometry" />
        </mxCell>
        <mxCell id="yiMCuqzppgtP_T2wNdQ1-14" value="" style="edgeStyle=orthogonalEdgeStyle;rounded=1;orthogonalLoop=1;jettySize=auto;html=1;strokeColor=default;curved=0;dashed=1;" edge="1" parent="1" source="yiMCuqzppgtP_T2wNdQ1-9">
          <mxGeometry relative="1" as="geometry">
            <mxPoint x="770" y="280" as="targetPoint" />
          </mxGeometry>
        </mxCell>
        <mxCell id="yiMCuqzppgtP_T2wNdQ1-9" value="output d" style="rounded=0;whiteSpace=wrap;html=1;" vertex="1" parent="1">
          <mxGeometry x="580" y="360" width="120" height="60" as="geometry" />
        </mxCell>
        <mxCell id="yiMCuqzppgtP_T2wNdQ1-11" value="End" style="ellipse;whiteSpace=wrap;html=1;" vertex="1" parent="1">
          <mxGeometry x="410" y="350" width="120" height="80" as="geometry" />
        </mxCell>
        <mxCell id="yiMCuqzppgtP_T2wNdQ1-21" value="Hàm in màn hình d" style="shape=process;whiteSpace=wrap;html=1;backgroundOutline=1;" vertex="1" parent="1">
          <mxGeometry x="710" y="220" width="120" height="60" as="geometry" />
        </mxCell>
        <mxCell id="yiMCuqzppgtP_T2wNdQ1-23" value="&lt;h1&gt;1/&lt;/h1&gt;" style="text;html=1;align=center;verticalAlign=middle;resizable=0;points=[];autosize=1;strokeColor=none;fillColor=none;" vertex="1" parent="1">
          <mxGeometry x="33" width="44" height="77" as="geometry" />
        </mxCell>
        <mxCell id="yiMCuqzppgtP_T2wNdQ1-26" value="&lt;h1&gt;2/&lt;/h1&gt;" style="text;html=1;align=center;verticalAlign=middle;resizable=0;points=[];autosize=1;strokeColor=none;fillColor=none;" vertex="1" parent="1">
          <mxGeometry x="33" y="437" width="44" height="77" as="geometry" />
        </mxCell>
        <mxCell id="yiMCuqzppgtP_T2wNdQ1-30" value="" style="edgeStyle=orthogonalEdgeStyle;rounded=0;orthogonalLoop=1;jettySize=auto;html=1;" edge="1" parent="1" source="yiMCuqzppgtP_T2wNdQ1-28" target="yiMCuqzppgtP_T2wNdQ1-29">
          <mxGeometry relative="1" as="geometry" />
        </mxCell>
        <mxCell id="yiMCuqzppgtP_T2wNdQ1-28" value="&lt;pre style=&quot;font-size: 18px;&quot;&gt;start&lt;/pre&gt;" style="ellipse;whiteSpace=wrap;html=1;" vertex="1" parent="1">
          <mxGeometry x="50" y="517" width="120" height="80" as="geometry" />
        </mxCell>
        <mxCell id="yiMCuqzppgtP_T2wNdQ1-32" value="" style="edgeStyle=orthogonalEdgeStyle;rounded=0;orthogonalLoop=1;jettySize=auto;html=1;" edge="1" parent="1" source="yiMCuqzppgtP_T2wNdQ1-29" target="yiMCuqzppgtP_T2wNdQ1-31">
          <mxGeometry relative="1" as="geometry" />
        </mxCell>
        <mxCell id="yiMCuqzppgtP_T2wNdQ1-29" value="double P, R" style="whiteSpace=wrap;html=1;" vertex="1" parent="1">
          <mxGeometry x="50" y="638" width="120" height="60" as="geometry" />
        </mxCell>
        <mxCell id="yiMCuqzppgtP_T2wNdQ1-34" value="" style="edgeStyle=orthogonalEdgeStyle;rounded=0;orthogonalLoop=1;jettySize=auto;html=1;" edge="1" parent="1" source="yiMCuqzppgtP_T2wNdQ1-31" target="yiMCuqzppgtP_T2wNdQ1-33">
          <mxGeometry relative="1" as="geometry" />
        </mxCell>
        <mxCell id="yiMCuqzppgtP_T2wNdQ1-31" value="Nhập giá trị của R" style="whiteSpace=wrap;html=1;" vertex="1" parent="1">
          <mxGeometry x="220" y="638" width="120" height="60" as="geometry" />
        </mxCell>
        <mxCell id="yiMCuqzppgtP_T2wNdQ1-36" value="" style="edgeStyle=orthogonalEdgeStyle;rounded=0;orthogonalLoop=1;jettySize=auto;html=1;" edge="1" parent="1" source="yiMCuqzppgtP_T2wNdQ1-33" target="yiMCuqzppgtP_T2wNdQ1-35">
          <mxGeometry relative="1" as="geometry" />
        </mxCell>
        <mxCell id="yiMCuqzppgtP_T2wNdQ1-33" value="P = 2 * 3,14 * R" style="whiteSpace=wrap;html=1;" vertex="1" parent="1">
          <mxGeometry x="400" y="638" width="120" height="60" as="geometry" />
        </mxCell>
        <mxCell id="yiMCuqzppgtP_T2wNdQ1-38" value="" style="edgeStyle=orthogonalEdgeStyle;rounded=0;orthogonalLoop=1;jettySize=auto;html=1;" edge="1" parent="1" source="yiMCuqzppgtP_T2wNdQ1-35" target="yiMCuqzppgtP_T2wNdQ1-37">
          <mxGeometry relative="1" as="geometry" />
        </mxCell>
        <mxCell id="yiMCuqzppgtP_T2wNdQ1-35" value="Xuất màn hình" style="whiteSpace=wrap;html=1;" vertex="1" parent="1">
          <mxGeometry x="572" y="638" width="120" height="60" as="geometry" />
        </mxCell>
        <mxCell id="yiMCuqzppgtP_T2wNdQ1-37" value="&lt;pre style=&quot;font-size: 19px;&quot;&gt;End&lt;/pre&gt;" style="ellipse;whiteSpace=wrap;html=1;" vertex="1" parent="1">
          <mxGeometry x="572" y="737" width="120" height="80" as="geometry" />
        </mxCell>
        <mxCell id="yiMCuqzppgtP_T2wNdQ1-39" value="&lt;h1&gt;3/&lt;/h1&gt;" style="text;html=1;align=center;verticalAlign=middle;resizable=0;points=[];autosize=1;strokeColor=none;fillColor=none;" vertex="1" parent="1">
          <mxGeometry x="31" y="822" width="44" height="77" as="geometry" />
        </mxCell>
        <mxCell id="yiMCuqzppgtP_T2wNdQ1-42" value="" style="edgeStyle=orthogonalEdgeStyle;rounded=0;orthogonalLoop=1;jettySize=auto;html=1;" edge="1" parent="1" source="yiMCuqzppgtP_T2wNdQ1-40" target="yiMCuqzppgtP_T2wNdQ1-41">
          <mxGeometry relative="1" as="geometry" />
        </mxCell>
        <mxCell id="yiMCuqzppgtP_T2wNdQ1-40" value="&lt;pre style=&quot;font-size: 15px;&quot;&gt;start&lt;/pre&gt;" style="ellipse;whiteSpace=wrap;html=1;" vertex="1" parent="1">
          <mxGeometry x="22" y="891" width="120" height="80" as="geometry" />
        </mxCell>
        <mxCell id="yiMCuqzppgtP_T2wNdQ1-44" value="" style="edgeStyle=orthogonalEdgeStyle;rounded=0;orthogonalLoop=1;jettySize=auto;html=1;" edge="1" parent="1" source="yiMCuqzppgtP_T2wNdQ1-41" target="yiMCuqzppgtP_T2wNdQ1-43">
          <mxGeometry relative="1" as="geometry" />
        </mxCell>
        <mxCell id="yiMCuqzppgtP_T2wNdQ1-41" value="D1, M1, Y1" style="whiteSpace=wrap;html=1;" vertex="1" parent="1">
          <mxGeometry x="22" y="1012" width="120" height="60" as="geometry" />
        </mxCell>
        <mxCell id="yiMCuqzppgtP_T2wNdQ1-46" value="" style="edgeStyle=orthogonalEdgeStyle;rounded=0;orthogonalLoop=1;jettySize=auto;html=1;" edge="1" parent="1" source="yiMCuqzppgtP_T2wNdQ1-43" target="yiMCuqzppgtP_T2wNdQ1-45">
          <mxGeometry relative="1" as="geometry" />
        </mxCell>
        <mxCell id="yiMCuqzppgtP_T2wNdQ1-43" value="D2, M2, Y2" style="whiteSpace=wrap;html=1;" vertex="1" parent="1">
          <mxGeometry x="209" y="1012" width="120" height="60" as="geometry" />
        </mxCell>
        <mxCell id="yiMCuqzppgtP_T2wNdQ1-48" value="" style="edgeStyle=orthogonalEdgeStyle;rounded=0;orthogonalLoop=1;jettySize=auto;html=1;" edge="1" parent="1" source="yiMCuqzppgtP_T2wNdQ1-45" target="yiMCuqzppgtP_T2wNdQ1-47">
          <mxGeometry relative="1" as="geometry" />
        </mxCell>
        <mxCell id="yiMCuqzppgtP_T2wNdQ1-45" value="Nhập D1, M1, Y1, D2, M2, Y2" style="whiteSpace=wrap;html=1;" vertex="1" parent="1">
          <mxGeometry x="385" y="1012" width="120" height="60" as="geometry" />
        </mxCell>
        <mxCell id="yiMCuqzppgtP_T2wNdQ1-50" value="" style="edgeStyle=orthogonalEdgeStyle;rounded=0;orthogonalLoop=1;jettySize=auto;html=1;" edge="1" parent="1" source="yiMCuqzppgtP_T2wNdQ1-47" target="yiMCuqzppgtP_T2wNdQ1-49">
          <mxGeometry relative="1" as="geometry" />
        </mxCell>
        <mxCell id="yiMCuqzppgtP_T2wNdQ1-47" value="Lấy D, M, Y hiện tại" style="whiteSpace=wrap;html=1;" vertex="1" parent="1">
          <mxGeometry x="539" y="1012" width="120" height="60" as="geometry" />
        </mxCell>
        <mxCell id="yiMCuqzppgtP_T2wNdQ1-52" value="" style="edgeStyle=orthogonalEdgeStyle;rounded=0;orthogonalLoop=1;jettySize=auto;html=1;" edge="1" parent="1" source="yiMCuqzppgtP_T2wNdQ1-49" target="yiMCuqzppgtP_T2wNdQ1-51">
          <mxGeometry relative="1" as="geometry" />
        </mxCell>
        <mxCell id="yiMCuqzppgtP_T2wNdQ1-49" value="T1 = Y ht - Y1&lt;div&gt;T2 = Y ht - Y2&lt;/div&gt;" style="whiteSpace=wrap;html=1;" vertex="1" parent="1">
          <mxGeometry x="700" y="1012" width="120" height="60" as="geometry" />
        </mxCell>
        <mxCell id="yiMCuqzppgtP_T2wNdQ1-54" value="" style="edgeStyle=orthogonalEdgeStyle;rounded=0;orthogonalLoop=1;jettySize=auto;html=1;" edge="1" parent="1" source="yiMCuqzppgtP_T2wNdQ1-51" target="yiMCuqzppgtP_T2wNdQ1-53">
          <mxGeometry relative="1" as="geometry" />
        </mxCell>
        <mxCell id="yiMCuqzppgtP_T2wNdQ1-51" value="Output = T1 &amp;gt;= T2" style="whiteSpace=wrap;html=1;" vertex="1" parent="1">
          <mxGeometry x="700" y="1152" width="120" height="60" as="geometry" />
        </mxCell>
        <mxCell id="yiMCuqzppgtP_T2wNdQ1-56" value="" style="edgeStyle=orthogonalEdgeStyle;rounded=0;orthogonalLoop=1;jettySize=auto;html=1;" edge="1" parent="1" source="yiMCuqzppgtP_T2wNdQ1-53" target="yiMCuqzppgtP_T2wNdQ1-55">
          <mxGeometry relative="1" as="geometry" />
        </mxCell>
        <mxCell id="yiMCuqzppgtP_T2wNdQ1-53" value="Xuất output" style="whiteSpace=wrap;html=1;" vertex="1" parent="1">
          <mxGeometry x="539" y="1152" width="120" height="60" as="geometry" />
        </mxCell>
        <mxCell id="yiMCuqzppgtP_T2wNdQ1-55" value="End" style="ellipse;whiteSpace=wrap;html=1;" vertex="1" parent="1">
          <mxGeometry x="365" y="1142" width="120" height="80" as="geometry" />
        </mxCell>
      </root>
    </mxGraphModel>
  </diagram>
</mxfile>
